HIERARCHY
ROOT Hips
{
  OFFSET 267.745 86.9975 -272.335
  CHANNELS 6 Xposition Yposition Zposition Zrotation Xrotation Yrotation
  JOINT LeftUpLeg
  {
    OFFSET 8.64259 1.95398 -2.38835
    CHANNELS 3 Zrotation Xrotation Yrotation
    JOINT LeftLeg
    {
      OFFSET 43.7702 0 0
      CHANNELS 3 Zrotation Xrotation Yrotation
      JOINT LeftFoot
      {
        OFFSET 40.6238 0 0
        CHANNELS 3 Zrotation Xrotation Yrotation
        JOINT LeftToeBase
        {
          OFFSET 12.7242 0 0
          CHANNELS 3 Zrotation Xrotation Yrotation
          End Site
          {
            OFFSET 0 0 0
          }
        }
      }
    }
  }
  JOINT RightUpLeg
  {
    OFFSET -8.2249 1.95398 -2.59336
    CHANNELS 3 Zrotation Xrotation Yrotation
    JOINT RightLeg
    {
      OFFSET 43.5653 0 0
      CHANNELS 3 Zrotation Xrotation Yrotation
      JOINT RightFoot
      {
        OFFSET 40.6238 0 0
        CHANNELS 3 Zrotation Xrotation Yrotation
        JOINT RightToeBase
        {
          OFFSET 12.7242 0 0
          CHANNELS 3 Zrotation Xrotation Yrotation
          End Site
          {
            OFFSET 0 0 0
          }
        }
      }
    }
  }
  JOINT Spine
  {
    OFFSET 0.165834 0.87714 6.61349
    CHANNELS 3 Zrotation Xrotation Yrotation
    JOINT Spine1
    {
      OFFSET 7.38963 1.71661e-005 0
      CHANNELS 3 Zrotation Xrotation Yrotation
      JOINT Spine2
      {
        OFFSET 11.9445 1.14441e-005 0
        CHANNELS 3 Zrotation Xrotation Yrotation
        JOINT Spine3
        {
          OFFSET 14.7254 4.19617e-005 0
          CHANNELS 3 Zrotation Xrotation Yrotation
          JOINT Spine4
          {
            OFFSET 10.9679 0 0
            CHANNELS 3 Zrotation Xrotation Yrotation
            JOINT RightShoulder
            {
              OFFSET 2.46616 -1.6653 3.69651
              CHANNELS 3 Zrotation Xrotation Yrotation
              JOINT RightArm
              {
                OFFSET 13.0012 0 0
                CHANNELS 3 Zrotation Xrotation Yrotation
                JOINT RightForeArm
                {
                  OFFSET 28.7848 1.52588e-005 0
                  CHANNELS 3 Zrotation Xrotation Yrotation
                  JOINT RightHand
                  {
                    OFFSET 26.5688 1.52588e-005 0
                    CHANNELS 3 Zrotation Xrotation Yrotation
                    End Site
                    {
                      OFFSET 0 0 0
                    }
                  }
                }
              }
            }
            JOINT LeftShoulder
            {
              OFFSET 2.38034 -1.29275 -3.7523
              CHANNELS 3 Zrotation Xrotation Yrotation
              JOINT LeftArm
              {
                OFFSET 16.3182 6.10352e-005 0
                CHANNELS 3 Zrotation Xrotation Yrotation
                JOINT LeftForeArm
                {
                  OFFSET 27.0901 0 0
                  CHANNELS 3 Zrotation Xrotation Yrotation
                  JOINT LeftHand
                  {
                    OFFSET 24.5451 1.52588e-005 0
                    CHANNELS 3 Zrotation Xrotation Yrotation
                    End Site
                    {
                      OFFSET 0 0 0
                    }
                  }
                }
              }
            }
            JOINT Neck
            {
              OFFSET 5.0226 -0.0266342 0
              CHANNELS 3 Zrotation Xrotation Yrotation
              JOINT Head
              {
                OFFSET 6.69364 2.86102e-005 0
                CHANNELS 3 Zrotation Xrotation Yrotation
                End Site
                {
                  OFFSET 0 0 0
                }
              }
            }
          }
        }
      }
    }
  }
}
MOTION
Frames:	14
Frame Time:	0.0416667
268.045 83.7975 -271.982 153.332 -5.83876 -175.624 -160.478 41.4086 -165.592 101.138 14.9524 164.266 37.4196 -23.2327 16.8554 170.712 60.6627 44.5446 146.766 -41.4537 52.3043 -25.2647 -49.5938 31.8485 34.3271 19.1649 -11.0508 -7.09843 -47.0872 117.48 -5.43849 12.99 -87.6674 1.01343 -9.97097 4.18895 -10.6272 -9.77706 4.62678 -33.4672 -10.7641 0.9669 -13.4545 -10.7641 0.966895 117.172 -28.5116 -51.0173 55.348 18.1619 -14.0745 -2.73139 63.9448 -0.00177185 3.2018 0.259498 3.49839 -76.1199 -53.2506 99.4012 -10.4528 7.30867 80.8677 31.9303 18.9583 -110.192 -18.5816 -8.49393 50.2139 -87.3407 7.10812 -13.4087 31.7452 19.4586 58.0301 
268.248 83.7722 -272.173 153.318 -5.63914 -175.595 -161.128 41.3565 -165.061 101.252 15.6736 164.012 37.6859 -23.1562 16.8907 165.591 63.0762 49.6159 146.912 -41.5029 52.248 -25.8646 -49.5042 32.0444 34.318 19.0668 -10.9538 -9.15119 -47.6325 115.441 -5.44201 13.013 -87.6587 0.967357 -9.97525 4.19927 -10.6732 -9.7809 4.63729 -33.5134 -10.7713 0.975425 -13.5008 -10.7713 0.975427 117.22 -28.7796 -51.0515 54.9981 18.0134 -13.8892 -2.5976 64.5891 -0.00181367 3.15198 0.268269 3.87658 -75.9655 -52.9827 99.6355 -10.5414 7.32435 80.599 32.2894 19.03 -110.313 -18.4568 -8.4422 50.2904 -87.2846 7.10444 -13.3881 31.6994 19.4796 58.1247 
268.838 83.6978 -272.729 153.269 -5.06245 -175.512 -163.011 41.1868 -163.567 101.657 17.8136 163.231 38.4852 -22.9158 16.9504 146.27 68.1134 68.6732 147.326 -41.6679 52.1021 -27.6222 -49.2442 32.5494 34.29 18.8036 -10.6395 -15.2376 -48.8236 109.292 -5.45234 13.0798 -87.6337 0.833774 -9.98809 4.22899 -10.8068 -9.79241 4.66754 -33.6476 -10.7924 0.99981 -13.635 -10.7924 0.999812 117.358 -29.5626 -51.1528 53.9722 17.5666 -13.3264 -2.20988 66.4211 -0.00194559 2.98527 0.287768 4.90348 -75.5266 -52.2078 100.31 -10.7972 7.36376 79.8144 33.349 19.2301 -110.674 -18.0947 -8.28939 50.5023 -87.1198 7.09411 -13.3282 31.5672 19.5401 58.3993 
269.778 83.5735 -273.622 153.184 -4.14549 -175.379 -165.84 40.9188 -161.05 102.675 20.9937 161.909 39.8382 -22.4817 16.8975 111.235 68.902 102.957 147.955 -41.9988 51.9233 -30.4865 -48.8217 33.161 34.2454 18.4472 -10.0338 -24.9751 -49.5166 99.141 -5.46946 13.1865 -87.5938 0.620193 -10.0099 4.27594 -11.0204 -9.81212 4.7154 -33.8622 -10.8273 1.03788 -13.8495 -10.8273 1.03788 117.577 -30.8311 -51.3203 52.302 16.804 -12.3418 -1.60011 69.2566 -0.00219734 2.6551 0.300453 6.34352 -74.8507 -50.9777 101.373 -11.1984 7.40941 78.5451 35.1015 19.5247 -111.286 -17.5182 -8.038 50.8104 -86.8512 7.07899 -13.2316 31.3557 19.6359 58.8382 
271.032 83.3941 -274.824 153.057 -2.92757 -175.198 -169.898 40.4168 -158.325 104.399 25.9617 159.639 41.755 -21.8327 16.5148 85.347 62.8493 127.371 148.739 -42.5603 51.7875 -34.4348 -48.2121 33.6197 34.2057 18.0724 -9.03309 -36.8824 -48.3157 86.1023 -5.49345 13.3294 -87.5409 0.334376 -10.0414 4.33779 -11.3062 -9.84087 4.77857 -34.1495 -10.8759 1.08715 -14.1369 -10.8759 1.08715 117.868 -32.5582 -51.5539 50.02 15.6942 -10.8443 -0.83049 72.934 -0.0014519 2.11197 0.284538 7.94372 -73.9946 -49.3553 102.767 -11.718 7.43371 76.821 37.5584 19.863 -112.171 -16.7583 -7.69195 51.1588 -86.4827 7.0618 -13.1006 31.0719 19.7629 59.4256 
272.561 83.1503 -276.308 152.883 -1.44749 -174.974 -174.641 39.8019 -155.029 107.727 31.8245 156.202 44.1162 -20.8152 15.3567 74.8075 55.9978 135.671 149.623 -43.4162 51.7749 -39.4872 -47.3132 33.6581 34.2258 17.7195 -7.52144 -48.3078 -44.2962 72.4691 -5.52451 13.5045 -87.4763 -0.0162267 -10.0835 4.41214 -11.6567 -9.87972 4.85471 -34.5021 -10.9384 1.14505 -14.4895 -10.9384 1.14505 118.216 -34.7177 -51.8565 47.177 14.2052 -8.69995 12.869 76.8413 -13.2029 1.3225 0.221112 9.50603 -73.0198 -47.4115 104.428 -12.3287 7.39596 74.6741 40.735 20.1775 -113.357 -15.8592 -7.26114 51.4746 -86.0174 7.04579 -12.9367 30.7218 19.9163 60.1459 
274.327 82.8295 -278.048 152.653 0.256349 -174.707 179.934 39.0938 -151.564 113.756 38.8036 150.672 46.6423 -19.0611 12.7014 71.7742 51.3216 135.86 150.556 -44.6291 51.9586 -45.7437 -45.8455 33.0029 34.4 17.3586 -5.33726 -57.0158 -37.437 60.1438 -5.56282 13.7084 -87.4019 -0.424331 -10.1372 4.4965 -12.0648 -9.92969 4.94137 -34.9129 -11.0149 1.20891 -14.9002 -11.0149 1.20891 118.608 -37.2799 -52.2315 43.8618 12.3263 -5.72285 45.3798 78.5224 -45.1975 0.267599 0.0969784 10.8979 -71.9854 -45.2275 106.288 -13.0057 7.24596 72.1434 44.6348 20.3812 -114.859 -14.8859 -6.767 51.6633 -85.4581 7.03462 -12.7415 30.3112 20.0916 60.9835 
276.291 82.4156 -280.016 152.36 2.14602 -174.396 173.936 38.4056 -148.117 122.091 44.1404 143.121 49.5935 -18.1349 9.94621 72.0225 48.5255 132.42 151.506 -46.2692 52.3932 -53.5211 -43.0459 31.3121 34.8419 16.8174 -2.08564 -62.4917 -28.1902 49.3336 -5.6085 13.9374 -87.3192 -0.883029 -10.2034 4.58825 -12.5233 -9.9917 5.03595 -35.3749 -11.1054 1.27596 -15.3623 -11.1054 1.27598 119.027 -40.2063 -52.6807 40.221 10.1081 -1.65777 79.1778 75.0593 -78.3083 -1.06633 -0.0948989 12.036 -70.9427 -42.8944 108.279 -13.7297 6.92722 69.2785 49.2295 20.3687 -116.665 -13.9343 -6.2488 51.6027 -84.8076 7.03214 -12.5165 29.8462 20.2844 61.9223 
278.419 81.8929 -282.184 151.997 4.18604 -174.039 167.434 37.8941 -144.822 133.361 47.6675 133.285 52.4321 -17.3777 6.39642 73.3773 46.5613 127.778 152.519 -48.4299 53.1423 -63.729 -36.661 28.0482 35.5243 15.6223 3.67301 -65.6434 -16.4639 38.7713 -5.66156 14.1885 -87.2298 -1.38591 -10.2824 4.6847 -13.0259 -10.0664 5.13582 -35.8819 -11.2096 1.3435 -15.8692 -11.2096 1.3435 119.455 -43.448 -53.2048 36.4635 7.71838 3.81046 96.9215 67.0343 -95.1577 -2.69195 -0.35495 12.8632 -69.9319 -40.5035 110.34 -14.4908 6.38084 66.136 54.4392 20.0248 -118.721 -13.1316 -5.76476 51.1463 -84.0684 7.04201 -12.2631 29.3327 20.4903 62.9463 
280.69 81.2507 -284.525 151.558 6.34524 -173.632 160.46 37.7206 -141.734 146.274 48.4405 122.55 54.9068 -16.9478 2.31247 74.5533 44.7044 123.422 154.015 -51.3367 54.5551 -78.0575 -20.1257 23.0182 35.5455 13.2824 17.4522 -67.7441 0.598251 25.4081 -5.72182 14.4587 -87.1353 -1.9275 -10.3744 4.78329 -13.5672 -10.1541 5.23839 -36.4284 -11.3269 1.40899 -16.4157 -11.3269 1.40899 119.869 -46.9459 -53.8056 32.8174 5.47408 10.9988 104.355 56.1322 -101.348 -4.61345 -0.67522 13.3289 -68.98 -38.1348 112.416 -15.2914 5.55322 62.7754 60.1251 19.2384 -120.917 -12.6254 -5.38172 50.1338 -83.2439 7.06755 -11.9824 28.7764 20.7053 64.0405 
283.092 80.5182 -286.984 151.035 8.59568 -173.166 153.059 38.0143 -138.817 158.714 46.3675 113.25 56.7637 -16.8678 -2.20647 74.8727 42.6701 120.181 156.669 -56.3125 57.7504 -96.8565 16.9957 20.3845 25.7357 8.85955 49.5712 -60.4649 28.3112 1.26061 -5.78895 14.7457 -87.0371 -2.50306 -10.4792 4.88141 -14.1423 -10.2545 5.34109 -37.0096 -11.4562 1.47008 -16.997 -11.4562 1.47007 120.247 -50.6292 -54.4832 29.4205 3.82442 20.1003 107.135 43.1427 -102.255 -6.79983 -1.0339 13.3902 -68.1008 -35.8553 114.465 -16.1445 4.402 59.2566 66.0933 17.9108 -123.085 -12.5772 -5.16205 48.3909 -82.3373 7.11142 -11.6756 28.183 20.9255 65.1897 
285.531 79.2676 -289.618 150.424 10.9122 -172.634 144.901 38.6536 -136.218 168.898 42.2167 106.444 57.7506 -17.015 -6.76066 74.1753 40.4353 118.317 158.931 -62.6994 62.2008 -121.997 54.2312 31.2306 6.54044 -3.61909 73.025 -35.8703 39.3626 -24.9853 -5.8622 15.0474 -86.9367 -3.10852 -10.5958 4.97647 -14.7472 -10.3668 5.44127 -37.6216 -11.5958 1.52453 -17.6089 -11.5957 1.52452 120.565 -54.4144 -55.2354 26.1788 3.211 30.923 107.982 28.7822 -100.169 -9.13498 -1.38917 13.0468 -67.2989 -33.7176 116.455 -17.0718 2.90058 55.6368 72.1098 15.9582 -124.992 -13.1576 -5.14269 45.723 -81.3523 7.17589 -11.3443 27.5587 21.1474 66.379 
288.064 76.6961 -292.791 149.72 13.2733 -172.024 135.644 39.5009 -134.552 175.833 36.764 101.142 57.8604 -17.1117 -10.1623 72.6357 38.0661 117.703 162.454 -67.4508 67.7667 -155.392 67.6194 53.9598 -2.56711 -12.1841 78.6795 -32.2794 34.0082 -21.3997 -5.94058 15.3621 -86.8355 -3.74059 -10.7225 5.06588 -15.3787 -10.4894 5.53627 -38.2609 -11.7432 1.57041 -18.2483 -11.7432 1.57041 120.799 -58.2124 -56.0613 22.7309 3.77449 42.6833 108.471 14.1918 -96.1759 -11.3985 -1.68902 12.3859 -66.571 -31.7562 118.364 -18.1026 1.04323 51.9664 77.9406 13.3031 -126.347 -14.5375 -5.30467 41.907 -80.2933 7.26255 -10.9903 26.9095 21.3679 67.5937 
290.867 74.2709 -296.255 148.917 15.6609 -171.321 126.665 41.1789 -133.046 -178.668 30.6553 98.6377 57.0014 -17.1074 -13.8757 70.5204 35.6188 118.071 170.604 -72.5605 77.887 -178.105 68.4553 68.9863 -4.35202 -17.2487 82.5209 -36.3038 24.6008 -6.85071 -6.0226 15.6885 -86.735 -4.39694 -10.8566 5.14721 -16.0342 -10.6198 5.62355 -38.9251 -11.8953 1.60621 -18.9125 -11.8954 1.60621 120.925 -61.9377 -56.9616 18.6783 5.16608 54.2745 109.566 0.924537 -90.5379 -13.3553 -1.89905 11.5631 -65.909 -29.9894 120.18 -19.2708 -1.15285 48.2861 83.4051 9.86324 -126.795 -16.8879 -5.54713 36.672 -79.1642 7.37259 -10.6162 26.2411 21.584 68.8204 
